<svg xmlns="http://www.w3.org/2000/svg" viewBox="0 0 280 280" role="img" aria-label="6K Mystery dan">
  <defs>
    <pattern id="hatch" patternUnits="userSpaceOnUse" width="9" height="9" patternTransform="rotate(45)">
      <rect width="9" height="9" fill="none"/>
      <rect width="3.4" height="9" fill="rgba(0,0,0,0.17)"/>
    </pattern>
    <radialGradient id="vig" cx="50%" cy="46%" r="56%">
      <stop offset="0.62" stop-color="rgba(0,0,0,0)"/>
      <stop offset="1" stop-color="rgba(0,0,0,0.28)"/>
    </radialGradient>
    <filter id="gsh" x="-30%" y="-30%" width="160%" height="160%">
      <feDropShadow dx="0" dy="3" stdDeviation="4" flood-color="#000" flood-opacity="0.55"/>
    </filter>
    <linearGradient id="fgrad" x1="0" y1="0" x2="1" y2="1">
      <stop offset="0" stop-color="#d4d4d8"/>
      <stop offset="0.5" stop-color="#ababb2"/>
      <stop offset="1" stop-color="#7e7e86"/>
    </linearGradient>
    <clipPath id="plateclip"><path d="M 244.00 140.00 L 192.00 230.07 L 88.00 230.07 L 36.00 140.00 L 88.00 49.93 L 192.00 49.93 Z"/></clipPath>
  </defs>
  <path d="M 262.00 140.00 L 201.00 245.66 L 79.00 245.66 L 18.00 140.00 L 79.00 34.34 L 201.00 34.34 Z M 244.00 140.00 L 192.00 230.07 L 88.00 230.07 L 36.00 140.00 L 88.00 49.93 L 192.00 49.93 Z Z" fill="url(#fgrad)" fill-rule="evenodd"/>
  <path d="M 262.00 140.00 L 201.00 245.66 L 79.00 245.66 L 18.00 140.00 L 79.00 34.34 L 201.00 34.34 Z" fill="none" stroke="rgba(0,0,0,0.35)" stroke-width="2"/>
  <path d="M 244.00 140.00 L 192.00 230.07 L 88.00 230.07 L 36.00 140.00 L 88.00 49.93 L 192.00 49.93 Z" fill="#503a68"/>
  <g clip-path="url(#plateclip)">
    <rect x="118" y="10" width="44" height="260" fill="rgba(255,255,255,0.09)"/>
  </g>
  <path d="M 244.00 140.00 L 192.00 230.07 L 88.00 230.07 L 36.00 140.00 L 88.00 49.93 L 192.00 49.93 Z" fill="url(#hatch)"/>
  <path d="M 244.00 140.00 L 192.00 230.07 L 88.00 230.07 L 36.00 140.00 L 88.00 49.93 L 192.00 49.93 Z" fill="url(#vig)"/>
  <path d="M 245.00 140.00 L 192.50 230.93 L 87.50 230.93 L 35.00 140.00 L 87.50 49.07 L 192.50 49.07 Z" fill="none" stroke="rgba(0,0,0,0.4)" stroke-width="3"/>
  <g filter="url(#gsh)"><g transform="translate(87.37 86.00) scale(0.9153)" fill="#fff"><g transform="translate(0.000000,118.000000) scale(0.100000,-0.100000)" stroke="none"> <path d="M455 1166 c-20 -16 -20 -17 10 -39 46 -34 125 -113 125 -125 0 -11 -147 -131 -229 -187 -29 -19 -49 -35 -43 -35 5 0 61 25 123 55 113 54 182 70 191 43 4 -12 43 -13 117 -3 48 6 91 41 91 75 0 28 -50 100 -101 146 -75 68 -237 107 -284 70z M940 824 c-19 -8 -82 -24 -140 -34 -146 -27 -329 -79 -495 -140 -146 -54 -167 -57 -273 -34 -32 7 -33 6 -21 -20 17 -37 161 -118 219 -123 39 -4 49 0 75 24 16 15 45 40 63 56 19 15 30 27 23 27 -6 0 -11 4 -11 8 0 10 57 38 128 63 l52 18 0 -34 c0 -29 4 -34 29 -40 56 -12 56 -26 -5 -111 -31 -44 -73 -99 -93 -124 -59 -70 -64 -84 -47 -125 l15 -35 50 19 c28 10 73 33 101 50 27 17 50 28 50 24 0 -11 -82 -113 -103 -128 -10 -7 -25 -30 -32 -51 -12 -34 -11 -43 6 -76 11 -21 23 -38 27 -38 9 0 98 33 134 50 26 12 78 79 78 99 0 5 14 21 31 35 24 20 34 24 49 16 35 -18 33 -32 -11 -76 -23 -24 -40 -46 -36 -50 3 -4 24 1 47 10 39 16 42 15 100 -9 87 -37 94 -35 85 23 -9 60 -30 96 -75 127 -50 34 -87 46 -147 48 -56 1 -56 1 -10 54 29 33 19 66 -25 77 -32 8 -46 5 -114 -28 -42 -20 -79 -34 -82 -32 -8 8 122 153 134 149 11 -4 48 66 39 75 -3 3 -5 0 -5 -6 0 -7 -5 -12 -11 -12 -5 0 -7 5 -4 11 9 13 -23 79 -37 79 -24 0 8 17 62 33 62 19 195 23 255 8 32 -8 43 -7 57 6 9 8 21 13 25 10 5 -3 20 3 33 13 20 16 23 22 14 37 -10 16 -147 94 -163 93 -3 -1 -22 -8 -41 -16z m-221 -138 c-36 -19 -96 -29 -103 -17 -6 10 57 28 104 30 l25 1 -26 -14z m27 -452 c-5 -13 -3 -14 6 -6 9 7 20 7 36 -2 21 -11 20 -13 -34 -39 -30 -15 -52 -22 -48 -15 4 7 -2 4 -14 -6 -39 -34 -33 -10 9 37 43 49 55 58 45 31z"/> </g></g></g>
</svg>
